<?xml version="1.0" encoding="utf-8"?>
<!-- Generator: Adobe Illustrator 15.1.0, SVG Export Plug-In . SVG Version: 6.00 Build 0)  -->
<!DOCTYPE svg PUBLIC "-//W3C//DTD SVG 1.1//EN" "http://www.w3.org/Graphics/SVG/1.1/DTD/svg11.dtd">
<svg version="1.1" id="Layer_1" xmlns:sketch="http://www.bohemiancoding.com/sketch/ns"
	 xmlns="http://www.w3.org/2000/svg" xmlns:xlink="http://www.w3.org/1999/xlink" x="0px" y="0px" width="40px" height="40px"
	 viewBox="0 0 40 40" enable-background="new 0 0 40 40" xml:space="preserve">
<path id="Github" sketch:type="MSShapeGroup" fill="#396882" d="M0.225,20c0-11.046,8.82-20,19.701-20s19.7,8.954,19.7,20
	s-8.819,20-19.7,20S0.225,31.046,0.225,20z"/>
<g>
	<g>
		<path fill="#FFFFFF" d="M30.35,22.529c0-0.172,0.014-2.218,0.014-3.083c0-2.403-1.226-3.844-2.695-4.829
			c-1.475-0.988-2.723-1.022-4.153-1.022c-1.898-0.022-3.061,0.504-3.829,1.022c-0.772,0.516-1.474,1.216-2.272,2.808
			c-0.907,2.028-1.619,3.645-2.286,4.287c-0.52,0.527-1.169,0.838-1.642,0.77c-0.471-0.07-0.886-0.332-1.151-0.889
			c-0.092-0.188-0.14-0.5-0.164-0.846c0.962-0.69,2.182-0.749,2.962-2.007c0.698-0.942,0.93-3.025,0.796-3.261
			c-0.253,0-2.643-0.092-3.616,0.65c-0.466,0.355-0.813,1.148-1.021,1.906c-0.207-0.758-0.544-1.55-1.012-1.906
			c-0.973-0.742-3.365-0.65-3.617-0.65c-0.133,0.236,0.099,2.319,0.796,3.261c0.773,1.245,1.975,1.317,2.932,1.986
			c0.15,0.932,0.411,1.955,0.813,2.686c0.921,1.666,3.042,3.258,5.358,3.258c0.213,0,0.86,0,3.446,0c0,0.342-0.147,0.484-0.102,0.93
			c0.045,0.443,0.21,0.645,0.708,0.68c0.914-0.002,3.331-1.604,3.653-1.609c0.58,0,3.251,0,3.616,0
			c1.278-0.102,2.292-0.664,2.623-1.639C30.847,24.02,30.35,22.818,30.35,22.529z M25.555,24.719c-0.461,0-0.836-0.375-0.836-0.838
			c0-0.469,0.375-0.84,0.836-0.84c0.462,0,0.837,0.371,0.837,0.84C26.392,24.344,26.017,24.719,25.555,24.719z"/>
	</g>
</g>
<path id="Path" sketch:type="MSShapeGroup" display="none" fill="#FFFFFF" d="M12.146,21.291c0.926,1.676,2.711,2.719,5.722,3.008
	c-0.43,0.326-0.946,0.943-1.017,1.657c-0.541,0.349-1.627,0.464-2.472,0.198c-1.184-0.373-1.637-2.711-3.41-2.379
	c-0.384,0.072-0.308,0.325,0.024,0.539c0.54,0.35,1.049,0.785,1.441,1.715c0.301,0.713,0.935,1.988,2.937,1.988
	c0.795,0,1.352-0.096,1.352-0.096s0.016,1.821,0.016,2.529c0,0.816-1.104,1.046-1.104,1.438c0,0.155,0.366,0.17,0.659,0.17
	c0.581,0,1.789-0.483,1.789-1.331c0-0.675,0.011-2.941,0.011-3.338c0-0.867,0.466-1.142,0.466-1.142s0.058,4.628-0.111,5.248
	c-0.198,0.729-0.556,0.626-0.556,0.951c0,0.484,1.454,0.118,1.936-0.943c0.373-0.827,0.209-5.366,0.209-5.366l0.397-0.009
	c0,0,0.022,2.078,0.009,3.028c-0.014,0.984-0.081,2.229,0.505,2.814c0.385,0.386,1.632,1.063,1.632,0.444
	c0-0.36-0.684-0.655-0.684-1.628v-4.477c0.546,0,0.464,1.473,0.464,1.473l0.04,2.734c0,0-0.12,0.996,1.08,1.413
	c0.423,0.147,1.329,0.188,1.372-0.06c0.043-0.249-1.092-0.619-1.102-1.391c-0.006-0.471,0.021-0.745,0.021-2.791
	c0-2.045-0.275-2.801-1.234-3.403c2.96-0.304,4.792-1.034,5.686-2.991c0.069,0.002,0.363-0.915,0.325-0.914
	c0.2-0.739,0.309-1.613,0.33-2.648c-0.005-2.806-1.352-3.799-1.61-4.265c0.381-2.125-0.063-3.092-0.27-3.423
	c-0.764-0.271-2.654,0.696-3.688,1.378c-1.686-0.492-5.245-0.444-6.58,0.127c-2.463-1.76-3.767-1.491-3.767-1.491
	s-0.842,1.506-0.223,3.71c-0.811,1.03-1.415,1.76-1.415,3.693c0,1.089,0.128,2.063,0.418,2.915
	C11.709,20.379,12.134,21.291,12.146,21.291z"/>
<path id="reflec" sketch:type="MSShapeGroup" fill-opacity="0.08" d="M39.625,20c0,11.046-8.819,20-19.7,20
	c-4.036,0-7.787-1.231-10.911-3.345L31.588,3.879C36.463,7.521,39.625,13.385,39.625,20z"/>
</svg>
