<?xml version="1.0" encoding="utf-8"?>
<!-- Generator: Adobe Illustrator 15.1.0, SVG Export Plug-In . SVG Version: 6.00 Build 0)  -->
<!DOCTYPE svg PUBLIC "-//W3C//DTD SVG 1.1//EN" "http://www.w3.org/Graphics/SVG/1.1/DTD/svg11.dtd">
<svg version="1.1" id="Layer_1" xmlns:sketch="http://www.bohemiancoding.com/sketch/ns"
	 xmlns="http://www.w3.org/2000/svg" xmlns:xlink="http://www.w3.org/1999/xlink" x="0px" y="0px" width="40px" height="40px"
	 viewBox="0 0 40 40" enable-background="new 0 0 40 40" xml:space="preserve">
<path id="Github" sketch:type="MSShapeGroup" fill="#4BB20D" d="M0.225,20c0-11.046,8.82-20,19.701-20s19.7,8.954,19.7,20
	s-8.819,20-19.7,20S0.225,31.046,0.225,20z"/>
<g display="none">
	<g display="inline">
		<path fill="#FFFFFF" d="M30.35,22.529c0-0.172,0.014-2.218,0.014-3.083c0-2.403-1.225-3.844-2.694-4.829
			c-1.476-0.988-2.724-1.022-4.153-1.022c-1.897-0.022-3.061,0.504-3.829,1.022c-0.772,0.516-1.474,1.216-2.272,2.808
			c-0.907,2.028-1.619,3.646-2.286,4.287c-0.52,0.527-1.169,0.838-1.642,0.771c-0.471-0.07-0.886-0.332-1.151-0.89
			c-0.092-0.188-0.14-0.5-0.164-0.846c0.962-0.69,2.182-0.749,2.962-2.007c0.698-0.942,0.93-3.025,0.796-3.261
			c-0.253,0-2.643-0.092-3.616,0.65c-0.466,0.355-0.813,1.148-1.021,1.906c-0.207-0.758-0.544-1.55-1.012-1.906
			c-0.973-0.742-3.365-0.65-3.617-0.65c-0.133,0.236,0.099,2.319,0.796,3.261c0.773,1.245,1.975,1.317,2.932,1.986
			c0.15,0.932,0.411,1.955,0.813,2.686c0.921,1.666,3.042,3.258,5.358,3.258c0.213,0,0.86,0,3.446,0c0,0.342-0.147,0.484-0.102,0.93
			c0.045,0.443,0.21,0.646,0.708,0.68c0.914-0.002,3.33-1.604,3.652-1.608c0.58,0,3.252,0,3.616,0
			c1.278-0.103,2.292-0.664,2.623-1.639C30.848,24.02,30.35,22.818,30.35,22.529z M25.555,24.719c-0.461,0-0.836-0.375-0.836-0.838
			c0-0.469,0.375-0.84,0.836-0.84c0.463,0,0.838,0.371,0.838,0.84C26.393,24.344,26.018,24.719,25.555,24.719z"/>
	</g>
</g>
<path id="reflec" sketch:type="MSShapeGroup" fill-opacity="0.08" d="M39.625,20c0,11.046-8.818,20-19.7,20
	c-4.036,0-7.787-1.23-10.911-3.346L31.588,3.879C36.463,7.521,39.625,13.385,39.625,20z"/>
<path fill="#FFFFFF" d="M31.49,29.313l-2.531-2.594c3.473-4.508,3.154-11.013-0.973-15.14c-4.484-4.484-11.78-4.484-16.264,0
	c-4.483,4.483-4.484,11.778,0,16.263c4.119,4.119,10.606,4.443,15.111,0.994l2.509,2.572L31.49,29.313z M13.844,25.721
	c-3.314-3.314-3.314-8.707,0-12.021s8.707-3.314,12.021,0c3.313,3.314,3.313,8.706,0,12.021
	C22.551,29.035,17.158,29.035,13.844,25.721z"/>
</svg>
